<svg width="79" height="26" viewBox="0 0 79 26" fill="none" xmlns="http://www.w3.org/2000/svg">
<g clip-path="url(#clip0_1_3407)">
<path d="M76.5388 15.8897L78.7305 17.3552C78.0192 18.406 76.3179 20.209 73.3765 20.209C69.724 20.209 67.0039 17.3745 67.0039 13.7687C67.0039 9.93171 69.7529 7.32861 73.069 7.32861C76.4043 7.32861 78.0383 9.98943 78.5671 11.4259L78.8554 12.1587L70.2623 15.7258C70.9159 17.0178 71.9349 17.6734 73.3765 17.6734C74.8184 17.6734 75.818 16.9599 76.5388 15.8897ZM69.801 13.5664L75.5393 11.1754C75.2221 10.3753 74.2802 9.80651 73.1554 9.80651C71.7234 9.80651 69.7337 11.0791 69.801 13.5664Z" fill="#FF302F"/>
<path d="M62.8613 0.763338H65.6294V19.6211H62.8613V0.763184V0.763338Z" fill="#20B15A"/>
<path d="M58.4976 7.82972H61.1697V19.2832C61.1697 24.0361 58.3726 25.9932 55.066 25.9932C51.9518 25.9932 50.0776 23.8915 49.3759 22.1851L51.8269 21.1631C52.2689 22.2139 53.3359 23.4577 55.066 23.4577C57.1902 23.4577 58.4976 22.1368 58.4976 19.6688V18.7434H58.4015C57.767 19.5145 56.5559 20.2087 55.018 20.2087C51.8076 20.2087 48.8662 17.4031 48.8662 13.7879C48.8662 10.1532 51.8076 7.31885 55.018 7.31885C56.5463 7.31885 57.767 8.00336 58.4015 8.75535H58.4976V7.82987V7.82972ZM58.6897 13.7879C58.6897 11.5126 57.1807 9.85431 55.2583 9.85431C53.3166 9.85431 51.6826 11.5126 51.6826 13.7879C51.6826 16.0341 53.3166 17.6634 55.2583 17.6634C57.1808 17.6732 58.6898 16.0341 58.6898 13.7879H58.6897Z" fill="#3686F7"/>
<path d="M33.6696 13.7397C33.6696 17.4516 30.7861 20.1798 27.2489 20.1798C23.7118 20.1798 20.8281 17.442 20.8281 13.7397C20.8281 10.0087 23.7118 7.29004 27.2489 7.29004C30.7861 7.29004 33.6696 10.0087 33.6696 13.7397ZM30.863 13.7397C30.863 11.4261 29.1904 9.8351 27.2489 9.8351C25.3074 9.8351 23.6348 11.4261 23.6348 13.7397C23.6348 16.0342 25.3074 17.6444 27.2489 17.6444C29.1906 17.6444 30.863 16.0342 30.863 13.7397Z" fill="#FF302F"/>
<path d="M47.6941 13.7687C47.6941 17.4805 44.8104 20.2088 41.2733 20.2088C37.736 20.2088 34.8525 17.4804 34.8525 13.7687C34.8525 10.0377 37.736 7.32861 41.2733 7.32861C44.8104 7.32861 47.6941 10.0281 47.6941 13.7687ZM44.8777 13.7687C44.8777 11.455 43.2052 9.86408 41.2636 9.86408C39.3221 9.86408 37.6495 11.455 37.6495 13.7687C37.6495 16.0632 39.3221 17.6734 41.2636 17.6734C43.2148 17.6734 44.8777 16.0536 44.8777 13.7687Z" fill="#FFBA40"/>
<path d="M10.2751 17.3842C6.24761 17.3842 3.09502 14.1255 3.09502 10.0859C3.09502 6.0465 6.24761 2.78784 10.2751 2.78784C12.4474 2.78784 14.0333 3.64584 15.2059 4.74496L17.138 2.80718C15.504 1.23573 13.3221 0.0400391 10.2751 0.0400391C4.75787 0.0401938 0.115234 4.55228 0.115234 10.0859C0.115234 15.6199 4.75787 20.1318 10.2751 20.1318C13.2548 20.1318 15.504 19.1485 17.263 17.3167C19.07 15.5042 19.6275 12.9589 19.6275 10.8958C19.6275 10.2498 19.5506 9.58467 19.4641 9.09299H10.2751V11.7732H16.8208C16.6285 13.4508 16.0999 14.598 15.3213 15.3788C14.3794 16.3334 12.8896 17.3842 10.2751 17.3842Z" fill="#3686F7"/>
</g>
<defs>
<clipPath id="clip0_1_3407">
<rect width="79" height="26" fill="white"/>
</clipPath>
</defs>
</svg>
